<svg width="39" height="40" viewBox="0 0 39 40" fill="none" xmlns="http://www.w3.org/2000/svg">
    <path
        d="M3.23985 40H34.8563C36.6454 40 38.0957 38.6009 38.0957 36.875V3.125C38.0957 1.39911 36.6454 0 34.8563 0H3.23985C1.45079 0 0.000461578 1.39911 0.000461578 3.125V36.875C0.000461578 38.6009 1.45079 40 3.23985 40Z"
        fill="#546FFF"
    />
    <path
        d="M17.5754 27.5459L25.5088 19.5433L23.4728 17.4897L17.5401 23.4737L14.5914 20.4994L12.5905 22.5177L17.5754 27.5459ZM10.6248 33.2113C9.85235 33.2113 9.19151 32.934 8.64205 32.3798C8.09259 31.8255 7.81746 31.1584 7.81641 30.3785V7.71684C7.81641 6.93793 8.09153 6.27109 8.64205 5.71685C9.19257 5.16261 9.8534 4.8851 10.6248 4.88403H21.8579L30.2828 13.3822V30.3785C30.2828 31.1576 30.0082 31.8247 29.4588 32.3798C28.9093 32.9351 28.2479 33.2121 27.4747 33.2113H10.6248ZM20.4538 14.7987H27.4747L20.4538 7.71684V14.7987Z"
        fill="white"
    />
</svg>
